<svg xmlns="http://www.w3.org/2000/svg" width="1000" height="640" viewBox="0 0 1000 640"><defs><linearGradient id="bg" x2="1" y2="1"><stop stop-color="#eef5ff"/><stop offset="1" stop-color="#fff2e8"/></linearGradient><filter id="shadow" x="-20%" y="-20%" width="140%" height="150%"><feDropShadow dy="14" stdDeviation="20" flood-color="#173250" flood-opacity=".12"/></filter></defs><rect width="1000" height="640" fill="url(#bg)"/><circle cx="930" cy="30" r="240" fill="#6955ba" opacity=".07"/><g font-family="Arial,sans-serif"><text x="68" y="80" fill="#526783" font-size="15" letter-spacing="2">MKSANALYTIQ / BUSINESS SERVICES</text><g filter="url(#shadow)"><rect x="90" y="126" width="820" height="390" rx="30" fill="#fff"/><rect x="90" y="126" width="820" height="68" rx="30" fill="#172942"/><circle cx="129" cy="160" r="6" fill="#f49a63"/><text x="155" y="167" fill="white" font-size="21">AI Chatbot Development</text><rect x="138" y="248" width="222" height="190" rx="20" fill="#f1f5fb"/><circle cx="171" cy="283" r="13" fill="#6955ba" opacity=".85"/><text x="161" y="361" fill="#18314f" font-size="23" font-weight="700">Question</text><rect x="161" y="384" width="125" height="6" rx="3" fill="#6955ba" opacity=".25"/><rect x="388" y="248" width="222" height="190" rx="20" fill="#6955ba"/><circle cx="421" cy="283" r="13" fill="#fff" opacity=".85"/><text x="411" y="361" fill="#fff" font-size="23" font-weight="700">Knowledge</text><rect x="411" y="384" width="125" height="6" rx="3" fill="#fff" opacity=".25"/><rect x="638" y="248" width="222" height="190" rx="20" fill="#f1f5fb"/><circle cx="671" cy="283" r="13" fill="#6955ba" opacity=".85"/><text x="661" y="361" fill="#18314f" font-size="23" font-weight="700">Handover</text><rect x="661" y="384" width="125" height="6" rx="3" fill="#6955ba" opacity=".25"/><path d="m363 329 19 0m-7-7 7 7-7 7m231-7 19 0m-7-7 7 7-7 7" stroke="#6955ba" stroke-width="3" fill="none"/></g><text x="91" y="564" fill="#526783" font-size="17">DELHI NCR + ACROSS INDIA</text></g></svg>
