<svg xmlns="http://www.w3.org/2000/svg" width="1000" height="640" viewBox="0 0 1000 640"><defs><linearGradient id="bg" x2="1" y2="1"><stop stop-color="#eef5ff"/><stop offset="1" stop-color="#fff1e5"/></linearGradient><filter id="s"><feDropShadow dy="15" stdDeviation="18" flood-color="#18314f" flood-opacity=".12"/></filter></defs><rect width="1000" height="640" fill="url(#bg)"/><circle cx="920" cy="40" r="180" fill="#bc397b" opacity=".07"/><g font-family="Arial,sans-serif"><text x="65" y="78" fill="#485b75" font-size="16" letter-spacing="3">CONTENT STUDIO</text><g filter="url(#s)"><rect x="135" y="134" width="730" height="375" rx="28" fill="white"/><rect x="135" y="134" width="730" height="56" rx="28" fill="#14263f"/><circle cx="167" cy="162" r="5" fill="#f88c58"/><circle cx="185" cy="162" r="5" fill="#ffd191"/><text x="212" y="168" fill="#fff" font-size="15">MKSAnalytIQ / Growth workspace</text><rect x="176" y="209" width="96" height="96" rx="24" fill="#bc397b"/><rect x="194" y="222" width="60" height="60" rx="17" fill="none" stroke="white" stroke-width="5"/><circle cx="224" cy="252" r="14" fill="none" stroke="white" stroke-width="5"/><circle cx="243" cy="232" r="4" fill="white"/><text x="302" y="240" fill="#14263f" font-size="25" font-weight="700">Instagram</text><text x="302" y="272" fill="#65758b" font-size="17">Audience. Content. Consistency.</text><rect x="176" y="333" width="194" height="134" rx="15" fill="#eff4fc"/><rect x="389" y="333" width="194" height="134" rx="15" fill="#fff3e9"/><rect x="602" y="333" width="222" height="134" rx="15" fill="#eff4fc"/><text x="195" y="370" fill="#bc397b" font-size="13" font-weight="700">01 / AUDIT</text><text x="408" y="370" fill="#cf602f" font-size="13" font-weight="700">02 / CREATE</text><text x="621" y="370" fill="#bc397b" font-size="13" font-weight="700">03 / REVIEW</text><text x="195" y="407" fill="#14263f" font-size="17">Find your focus</text><text x="408" y="407" fill="#14263f" font-size="17">Plan each post</text><text x="621" y="407" fill="#14263f" font-size="17">Learn and improve</text></g><text x="135" y="566" fill="#65758b" font-size="16">DELHI NCR + ACROSS INDIA</text></g></svg>
